<?xml version="1.0" encoding="UTF-8" standalone="no"?>
<!-- Created with Inkscape (http://www.inkscape.org/) -->

<svg
   width="155mm"
   height="48mm"
   viewBox="0 0 155 48"
   version="1.1"
   id="svg5"
   inkscape:version="1.2.1 (9c6d41e410, 2022-07-14)"
   sodipodi:docname="Skillearn-logo-2.svg"
   xmlns:inkscape="http://www.inkscape.org/namespaces/inkscape"
   xmlns:sodipodi="http://sodipodi.sourceforge.net/DTD/sodipodi-0.dtd"
   xmlns="http://www.w3.org/2000/svg"
   xmlns:svg="http://www.w3.org/2000/svg">
  <sodipodi:namedview
     id="namedview7"
     pagecolor="#ffffff"
     bordercolor="#000000"
     borderopacity="0.25"
     inkscape:showpageshadow="2"
     inkscape:pageopacity="0.0"
     inkscape:pagecheckerboard="0"
     inkscape:deskcolor="#d1d1d1"
     inkscape:document-units="mm"
     showgrid="false"
     inkscape:zoom="2.2627417"
     inkscape:cx="213.23689"
     inkscape:cy="95.459415"
     inkscape:window-width="1366"
     inkscape:window-height="695"
     inkscape:window-x="0"
     inkscape:window-y="0"
     inkscape:window-maximized="1"
     inkscape:current-layer="layer1" />
  <defs
     id="defs2">
    <rect
       x="36.972151"
       y="280.63473"
       width="656.39292"
       height="371.58293"
       id="rect791" />
    <rect
       x="-160.15466"
       y="349.96778"
       width="875.56229"
       height="282.35012"
       id="rect7227" />
    <rect
       x="14.875405"
       y="323.93723"
       width="689.25476"
       height="549.15979"
       id="rect790" />
  </defs>
  <g
     inkscape:label="Layer 1"
     inkscape:groupmode="layer"
     id="layer1">
    <path
       id="rect1715"
       style="fill:none;stroke:#71c562;stroke-width:1;stroke-linecap:square;stroke-dasharray:none;stroke-dashoffset:0;stroke-opacity:1"
       d="M 0.50230309,0.63054407 H 73.185356 V 47.369456 H 0.50230309 Z" />
    <path
       id="path971"
       style="font-weight:600;font-size:12px;font-family:Poppins;-inkscape-font-specification:'Poppins Semi-Bold';white-space:pre;fill:#ffffff;fill-opacity:1;stroke:#ffffff;stroke-width:1;stroke-linecap:square;stroke-dasharray:none;stroke-opacity:1"
       d="m 142.98424,18.486883 c 2.2322,0 4.03599,0.710244 5.41139,2.130732 1.37539,1.39794 2.06309,3.359566 2.06309,5.884878 v 10.991871 h -4.73496 V 27.145095 c 0,-1.48813 -0.37204,-2.626775 -1.1161,-3.415935 -0.74407,-0.811708 -1.7587,-1.217561 -3.0439,-1.217561 -1.30775,0 -2.34494,0.405853 -3.11155,1.217561 -0.74406,0.78916 -1.1161,1.927805 -1.1161,3.415935 v 10.349269 h -4.73496 V 18.757452 h 4.73496 v 2.333659 c 0.63133,-0.811708 1.43177,-1.443036 2.4013,-1.893984 0.99209,-0.473496 2.07437,-0.710244 3.24683,-0.710244 z M 123.4568,21.66607 c 0.60878,-0.992087 1.39794,-1.769973 2.36748,-2.333659 0.99209,-0.563685 2.11946,-0.845528 3.38211,-0.845528 v 4.971708 h -1.25138 c -1.48813,0 -2.6155,0.349485 -3.38211,1.048455 -0.74407,0.69897 -1.1161,1.916531 -1.1161,3.652683 v 9.334635 h -4.73496 V 18.757452 h 4.73496 z m -29.045605,6.392196 c 0,-1.893984 0.372033,-3.573767 1.116098,-5.03935 0.766613,-1.465583 1.792521,-2.592954 3.077724,-3.382114 1.307751,-0.78916 2.762063,-1.18374 4.362923,-1.18374 1.39794,0 2.61551,0.281843 3.65269,0.845528 1.05973,0.563686 1.90525,1.27393 2.53658,2.130732 v -2.67187 h 4.76878 v 18.736912 h -4.76878 v -2.739512 c -0.60878,0.879349 -1.45431,1.612141 -2.53658,2.198374 -1.05973,0.563685 -2.28857,0.845528 -3.68651,0.845528 -1.57832,0 -3.021352,-0.405853 -4.329103,-1.217561 -1.285203,-0.811707 -2.311111,-1.950352 -3.077724,-3.415935 -0.744065,-1.48813 -1.116098,-3.190461 -1.116098,-5.106992 z m 14.746015,0.06764 c 0,-1.149919 -0.22547,-2.130732 -0.67642,-2.942439 -0.45095,-0.834255 -1.05973,-1.465583 -1.82634,-1.893984 -0.76661,-0.450949 -1.5896,-0.676423 -2.46894,-0.676423 -0.87935,0 -1.69106,0.214201 -2.43513,0.642602 -0.74406,0.428401 -1.35284,1.059729 -1.826339,1.893984 -0.450948,0.811707 -0.676422,1.781246 -0.676422,2.908618 0,1.127371 0.225474,2.119458 0.676422,2.97626 0.473499,0.834255 1.082279,1.476857 1.826339,1.927805 0.76662,0.450949 1.57832,0.676423 2.43513,0.676423 0.87934,0 1.70233,-0.214201 2.46894,-0.642602 0.76661,-0.450948 1.37539,-1.082276 1.82634,-1.893984 0.45095,-0.834254 0.67642,-1.826341 0.67642,-2.97626 z M 92.893055,27.720054 c 0,0.676423 -0.0451,1.285204 -0.135285,1.826342 H 79.060208 c 0.112737,1.352846 0.586233,2.412575 1.420488,3.179187 0.834255,0.766613 1.860163,1.149919 3.077724,1.149919 1.758699,0 3.010081,-0.755339 3.754146,-2.266017 h 5.106993 c -0.541139,1.803795 -1.57832,3.291925 -3.111545,4.464391 -1.533225,1.149919 -3.415935,1.724878 -5.648131,1.724878 -1.803794,0 -3.427209,-0.39458 -4.870244,-1.18374 -1.420488,-0.811707 -2.536586,-1.950352 -3.348293,-3.415935 -0.78916,-1.465583 -1.18374,-3.15664 -1.18374,-5.073171 0,-1.939079 0.39458,-3.641409 1.18374,-5.106992 0.78916,-1.465583 1.893984,-2.592954 3.314472,-3.382114 1.420488,-0.78916 3.055176,-1.18374 4.904065,-1.18374 1.781247,0 3.370841,0.383306 4.768781,1.149919 1.420488,0.766612 2.514038,1.860162 3.280651,3.28065 0.78916,1.397941 1.18374,3.010082 1.18374,4.836423 z m -4.904066,-1.352845 c -0.02255,-1.217561 -0.462222,-2.187101 -1.319024,-2.908618 -0.856802,-0.744066 -1.905258,-1.116098 -3.145366,-1.116098 -1.172467,0 -2.164553,0.360759 -2.976261,1.082276 -0.78916,0.698971 -1.273929,1.679784 -1.454309,2.94244 z M 70.090064,12.46672 v 25.027644 h -4.73496 V 12.46672 Z m -9.42715,0 v 25.027644 h -4.73496 V 12.46672 Z m -11.662403,4.058537 c -0.834255,0 -1.533225,-0.259296 -2.096911,-0.777887 -0.541138,-0.541138 -0.811707,-1.206287 -0.811707,-1.995447 0,-0.78916 0.270569,-1.443035 0.811707,-1.961626 0.563686,-0.541138 1.262656,-0.811707 2.096911,-0.811707 0.834255,0 1.521951,0.270569 2.063089,0.811707 0.563686,0.518591 0.845529,1.172466 0.845529,1.961626 0,0.78916 -0.281843,1.454309 -0.845529,1.995447 -0.541138,0.518591 -1.228834,0.777887 -2.063089,0.777887 z m 2.333659,2.232195 V 37.494364 H 46.59921 V 18.757452 Z M 37.209486,37.494364 30.851112,29.512575 v 7.981789 h -4.73496 V 12.46672 h 4.73496 v 14.2387 l 6.290732,-7.947968 h 6.155447 l -8.252358,9.402277 8.320001,9.334635 z m -23.539489,0.236748 q -2.468943,0 -4.4643902,-0.845529 Q 7.2439806,36.040055 6.0940618,34.450461 4.944143,32.860868 4.9103219,30.696315 H 9.983493 q 0.101463,1.454309 1.014634,2.299837 0.946992,0.845529 2.570407,0.845529 1.657236,0 2.604228,-0.777886 0.946992,-0.811708 0.946992,-2.096911 0,-1.048456 -0.642602,-1.724878 Q 15.83455,28.565583 14.853737,28.19355 13.906745,27.787697 12.215688,27.314201 9.9158507,26.637778 8.4615417,25.995176 7.0410537,25.318753 5.9925984,23.999729 4.9779642,22.646883 4.9779642,20.414688 q 0,-2.096911 1.0484553,-3.652683 1.0484554,-1.555773 2.9424393,-2.36748 1.8939842,-0.845529 4.3291062,-0.845529 3.652683,0 5.918699,1.792521 2.299838,1.758699 2.536586,4.937886 h -5.208456 q -0.06764,-1.217561 -1.048455,-1.995447 -0.946992,-0.811707 -2.536586,-0.811707 -1.386666,0 -2.232195,0.710244 -0.8117073,0.710244 -0.8117073,2.063089 0,0.946992 0.6087803,1.589594 0.642602,0.60878 1.555773,1.014634 0.946992,0.372033 2.638049,0.87935 2.299837,0.676423 3.754146,1.352845 1.454309,0.676423 2.502765,2.029269 1.048455,1.352845 1.048455,3.55122 0,1.893983 -0.980813,3.517398 -0.980813,1.623415 -2.874797,2.604228 -1.893984,0.946992 -4.498212,0.946992 z" />
  </g>
</svg>
